<svg width="10" height="10" viewBox="0 0 10 10" fill="none" xmlns="http://www.w3.org/2000/svg">
<path d="M5.04167 4.125H2.29167C2.17011 4.125 2.05353 4.17329 1.96758 4.25924C1.88162 4.3452 1.83333 4.46178 1.83333 4.58333C1.83333 4.70489 1.88162 4.82147 1.96758 4.90742C2.05353 4.99338 2.17011 5.04167 2.29167 5.04167H5.04167C5.16322 5.04167 5.2798 4.99338 5.36576 4.90742C5.45171 4.82147 5.5 4.70489 5.5 4.58333C5.5 4.46178 5.45171 4.3452 5.36576 4.25924C5.2798 4.17329 5.16322 4.125 5.04167 4.125ZM6.875 2.29167H2.29167C2.17011 2.29167 2.05353 2.33996 1.96758 2.42591C1.88162 2.51186 1.83333 2.62844 1.83333 2.75C1.83333 2.87156 1.88162 2.98814 1.96758 3.07409C2.05353 3.16004 2.17011 3.20833 2.29167 3.20833H6.875C6.99656 3.20833 7.11314 3.16004 7.19909 3.07409C7.28504 2.98814 7.33333 2.87156 7.33333 2.75C7.33333 2.62844 7.28504 2.51186 7.19909 2.42591C7.11314 2.33996 6.99656 2.29167 6.875 2.29167ZM7.79167 0H1.375C1.01033 0 0.660591 0.144866 0.402728 0.402728C0.144866 0.660591 0 1.01033 0 1.375V5.95833C0 6.32301 0.144866 6.67274 0.402728 6.93061C0.660591 7.18847 1.01033 7.33333 1.375 7.33333H6.68708L8.38292 9.03375C8.42574 9.07623 8.47653 9.10984 8.53238 9.13264C8.58822 9.15545 8.64801 9.16702 8.70833 9.16667C8.76846 9.16822 8.8281 9.15566 8.8825 9.13C8.9662 9.09562 9.03785 9.03722 9.08842 8.96219C9.13899 8.88715 9.16621 8.79882 9.16667 8.70833V1.375C9.16667 1.01033 9.0218 0.660591 8.76394 0.402728C8.50608 0.144866 8.15634 0 7.79167 0ZM8.25 7.60375L7.20042 6.54958C7.15759 6.5071 7.1068 6.4735 7.05096 6.45069C6.99512 6.42788 6.93532 6.41632 6.875 6.41667H1.375C1.25344 6.41667 1.13686 6.36838 1.05091 6.28242C0.964955 6.19647 0.916667 6.07989 0.916667 5.95833V1.375C0.916667 1.25344 0.964955 1.13686 1.05091 1.05091C1.13686 0.964955 1.25344 0.916667 1.375 0.916667H7.79167C7.91322 0.916667 8.0298 0.964955 8.11576 1.05091C8.20171 1.13686 8.25 1.25344 8.25 1.375V7.60375Z" fill="#44F1A6"/>
</svg>
