<svg width="10" height="10" viewBox="0 0 10 10" fill="none" xmlns="http://www.w3.org/2000/svg">
<path d="M4.62717 8.92572L4.62647 8.92503C3.32962 7.64331 2.29158 6.61611 1.57179 5.65697C0.85868 4.70673 0.5 3.87656 0.5 2.99728C0.5 1.55355 1.5258 0.5 2.75 0.5C3.45181 0.5 4.14661 0.858822 4.606 1.4468L5 1.95108L5.394 1.4468C5.85339 0.858822 6.54819 0.5 7.25 0.5C8.4742 0.5 9.5 1.55355 9.5 2.99728C9.5 3.87656 9.14132 4.70676 8.42811 5.65778C7.7083 6.61762 6.67034 7.64605 5.37359 8.93042C5.37344 8.93057 5.37329 8.93071 5.37315 8.93086L5.00134 9.29697L4.62717 8.92572Z" stroke="#44F1A6"/>
</svg>
