<svg width="33" height="33" viewBox="0 0 33 33" fill="none" xmlns="http://www.w3.org/2000/svg">
<path d="M14.4597 30.2712L14.459 30.2705C10.2009 26.0621 6.7047 22.6064 4.2671 19.3583C1.83618 16.119 0.5 13.1392 0.5 9.89101C0.5 4.58679 4.3088 0.5 9.075 0.5C11.7778 0.5 14.3931 1.87408 16.106 4.06642L16.5 4.5707L16.894 4.06642C18.6069 1.87408 21.2222 0.5 23.925 0.5C28.6912 0.5 32.5 4.58679 32.5 9.89101C32.5 13.1392 31.1638 16.119 28.7328 19.3606C26.3029 22.6008 22.8211 26.0493 18.5813 30.2486L18.5417 30.2879L18.5406 30.2889L16.5013 32.297L14.4597 30.2712Z" fill="#44F1A6" stroke="#44F1A6"/>
</svg>
