<svg width="70" height="70" viewBox="0 0 70 70" fill="none" xmlns="http://www.w3.org/2000/svg">
<rect width="70" height="70" rx="9" fill="#44F1A6"/>
<path d="M32.2584 24.9935C36.0479 15.4171 41.0024 15.2983 41.0024 15.2983C35.9629 13.4888 31.6224 14.0989 31.6224 14.0989C29.1164 15.7513 27.5897 22.6046 27.5897 22.6046C27.1994 27.113 25.7915 26.1489 25.7915 26.1489C24.9241 26.0773 25.3144 21.5688 25.3144 21.5688C26.0518 17.5651 28.0042 14.1369 28.0042 14.1369C25.9348 14.3727 22.0019 16.4373 22.0019 16.4373C14.2855 18.9502 15.6313 27.2724 15.6313 27.2724C15.4456 30.6733 17.5699 31.5727 17.5699 31.5727C23.0303 32.3818 23.2069 34.9214 23.2069 34.9214C22.6746 36.057 21.4207 35.5319 21.4207 35.5319C18.4571 35.0449 17.0505 35.6667 17.0505 35.6667C14.1197 36.5949 12.7821 40.9872 12.7821 40.9872C13.1042 42.3404 14.1145 43.1827 14.6158 44.2613C15.2319 45.5864 15.5807 47.8069 16.3411 48.7628C17.3764 50.065 18.5275 50.5015 19.5249 51.229C21.3655 52.5718 22.5882 52.8646 22.5882 52.8646C21.4121 50.4018 20.9583 47.3674 20.9583 47.3674C20.5054 38.828 23.7851 39.432 23.7851 39.432C24.3645 40.1116 23.8662 41.3849 23.8662 41.3849C21.1967 49.8189 26.2422 54.624 26.2422 54.624C30.0564 55.9136 35.1779 56 35.1779 56C35.1779 56 35.0994 55.9486 35.0212 55.8951C30.5007 52.8041 28.5409 43.4206 28.5409 43.4206C27.7741 39.9325 29.1687 40.0128 29.1687 40.0128C30.5063 40.0831 30.3763 42.7018 30.3763 42.7018C31.4467 49.0059 37.6347 54.491 37.6347 54.491C43.0818 54.4375 46.8933 52.321 46.8933 52.321C43.2989 51.894 38.48 45.2513 38.48 45.2513C34.8092 42.2264 35.165 39.3556 35.165 39.3556C36.7254 38.2339 38.4459 40.6647 38.4459 40.6647C41.9808 47.3056 49.6847 49.7818 49.6847 49.7818C51.1496 47.8725 52.4738 46.3722 53.6534 45.1926C51.5283 45.0916 48.7344 44.6732 46.7647 43.3127C46.7647 43.3127 43.2834 40.8512 44.3399 39.578C44.3399 39.578 45.8938 38.7939 51.1881 42.8879C51.1881 42.8879 52.2847 44.0601 54.1871 44.6715C58.4442 40.6103 60.6596 40.881 60.6596 40.881C58.3458 40.22 56.3411 31.982 56.3411 31.982C52.2912 31.8231 47.7512 34.2755 47.7512 34.2755C44.3576 36.5863 43.4971 34.7837 43.4971 34.7837C42.6258 33.3313 44.5152 32.0351 44.5152 32.0351C51.6747 28.6562 57.7957 30.3711 57.7957 30.3711C56.3843 26.0004 53.732 24.1024 53.732 24.1024C45.0825 23.6836 41.7334 27.5884 41.7334 27.5884C40.7382 29.1665 38.4356 31.2968 38.4356 31.2968C36.8234 33.026 35.2233 31.8499 35.2233 31.8499C34.8489 29.5793 38.2404 26.9451 38.2404 26.9451C44.1482 22.1318 52.0373 21.3827 52.0373 21.3827C49.3332 17.8898 44.8429 16.4464 44.8429 16.4464C39.3885 16.4106 37.1554 20.4031 37.1554 20.4031C33.8386 25.69 31.3357 27.6109 31.3357 27.6109C30.0555 28.344 32.2584 24.9935 32.2584 24.9935Z" fill="white"/>
<path d="M32.3948 35.9088C30.2412 35.9067 28.1165 35.7508 25.9888 35.5068C23.8636 35.259 21.7472 34.9045 19.6535 34.4227C17.5599 33.9408 15.4879 33.3299 13.4677 32.5471C12.4557 32.1607 11.4648 31.7121 10.4864 31.2324C9.51149 30.7441 8.56248 30.1966 7.63635 29.6042L8.65531 28.1134C9.49379 28.7014 10.3616 29.2545 11.2644 29.7567C12.1711 30.251 13.0968 30.7199 14.0515 31.1327C15.9564 31.9677 17.9395 32.6486 19.961 33.2069C21.9825 33.7656 24.0433 34.2034 26.1226 34.5375C28.1994 34.8678 30.3081 35.1139 32.3991 35.2063L32.3948 35.9088Z" fill="white"/>
</svg>
